<?xml version="1.0" encoding="utf-8"?>
<!-- Generator: Adobe Illustrator 15.1.0, SVG Export Plug-In . SVG Version: 6.00 Build 0)  -->
<!DOCTYPE svg PUBLIC "-//W3C//DTD SVG 1.1//EN" "http://www.w3.org/Graphics/SVG/1.1/DTD/svg11.dtd">
<svg version="1.1" id="Layer_1" xmlns="http://www.w3.org/2000/svg" xmlns:xlink="http://www.w3.org/1999/xlink" x="0px" y="0px"
	 width="352px" height="60px" viewBox="0 0 352 60" enable-background="new 0 0 352 60" xml:space="preserve">
<rect x="-13.667" y="-13.667" display="none" fill="#0A4288" stroke="#000000" stroke-miterlimit="10" width="375.333" height="86"/>
<g>
	<rect y="2" display="none" fill="#FFFFFF" width="92.775" height="54.053"/>
	<path fill="#FFFFFF" d="M91.48,13.177C88.312,2.618,67.314-0.412,44.58,6.422c-1.072,0.311-2.124,0.659-3.169,1.019
		c20.328-4.712,37.99-1.61,40.782,7.712c3.079,10.214-12.86,24.031-35.594,30.854c-0.524,0.153-1.032,0.301-1.549,0.447L55.64,9.859
		l-0.048,0.007l0.027-0.007l-2.777,0.191c-5.192,0.514-10.722,1.598-16.374,3.294C13.732,20.175-2.129,34.264,1.052,44.833
		C4.22,55.389,25.224,58.411,47.96,51.579c1.07-0.321,2.128-0.664,3.169-1.01c-20.333,4.707-37.995,1.606-40.791-7.708
		C7.264,32.636,23.203,18.821,45.945,11.994c0.479-0.144,0.957-0.282,1.431-0.417l-10.449,36.56l2.774-0.182
		c5.197-0.517,10.72-1.608,16.37-3.299C78.802,37.829,94.655,23.731,91.48,13.177z"/>
</g>
<g>
	<rect x="103.237" y="23.94" display="none" fill="#FFFFFF" width="248.248" height="19.398"/>
	<g>
		<path fill="#FFFFFF" d="M109.422,24.849c2.558-0.271,5.247-0.406,8.025-0.406c4.807,0,8.555,0.569,10.98,1.84
			c2.513,1.217,3.968,3.029,3.968,5.6c0,3.569-2.426,6.789-6.085,8.601c-3.439,1.705-7.805,2.436-14.243,2.436
			c-3.572,0-6.659-0.19-8.158-0.354L109.422,24.849z M111.23,39.645c0.75,0.08,1.676,0.107,2.778,0.107
			c3.439,0,6.482-0.729,8.423-2.109c2.028-1.406,3.086-3.327,3.086-5.626c0-2.895-2.558-4.464-7.717-4.464
			c-1.235,0-2.161,0.055-2.822,0.136L111.23,39.645z"/>
		<path fill="#FFFFFF" d="M150.035,38.048l-3.483,4.733h-6.791l14.508-18.23h8.158l3.439,18.23h-6.659l-0.617-4.733H150.035z
			 M158.325,35.073l-0.574-3.922c-0.132-1.001-0.265-2.462-0.396-3.571h-0.132c-0.75,1.109-1.588,2.517-2.381,3.571l-2.911,3.922
			H158.325z"/>
		<path fill="#FFFFFF" d="M178.785,42.781l5.644-18.23h7.453l3.925,6.951c1.19,2.327,1.984,4.22,2.689,6.223h0.133
			c0.132-1.868,0.572-3.869,1.367-6.547l2.028-6.627h5.953l-5.646,18.23h-6.569l-4.146-7.275c-1.323-2.488-2.117-4.138-2.91-6.356
			h-0.132c-0.309,1.785-1.016,4.354-1.897,7.248l-1.983,6.384H178.785z"/>
		<path fill="#FFFFFF" d="M226.055,38.048l-3.482,4.733h-6.791l14.508-18.23h8.157l3.439,18.23h-6.657l-0.618-4.733H226.055z
			 M234.346,35.073l-0.574-3.922c-0.131-1.001-0.263-2.462-0.396-3.571h-0.133c-0.75,1.109-1.587,2.517-2.382,3.571l-2.909,3.922
			H234.346z"/>
		<path fill="#FFFFFF" d="M266.801,24.551l-2.205,7.087h10.76l2.204-7.087h6.394l-5.644,18.23h-6.351l2.338-7.681h-10.805
			l-2.336,7.681h-6.35l5.644-18.23H266.801z"/>
		<path fill="#FFFFFF" d="M313.188,35.019H302.65l-1.368,4.436h11.862l-1.059,3.327h-18.212l5.646-18.23h17.594l-1.059,3.327h-11.2
			l-1.234,3.868h10.627L313.188,35.019z"/>
		<path fill="#FFFFFF" d="M331.974,24.902c1.983-0.298,4.982-0.46,7.938-0.46c2.821,0,5.732,0.244,7.805,1.055
			c1.94,0.703,3.307,1.839,3.307,3.543c0,2.705-2.91,4.382-6.747,5.14v0.081c1.765,0.486,2.559,1.677,2.822,3.326
			c0.397,2.057,0.618,4.437,1.147,5.193h-6.526c-0.266-0.486-0.573-2.055-0.838-4.3c-0.309-2.218-1.544-2.895-4.057-2.895h-1.94
			l-2.205,7.194h-6.262L331.974,24.902z M335.854,32.665h2.601c3.439,0,5.953-1.271,5.953-3.057c0-1.46-1.984-2.109-4.541-2.109
			c-1.191,0-1.94,0.054-2.471,0.136L335.854,32.665z"/>
	</g>
</g>
</svg>
